<svg width="1200" height="760" viewBox="0 0 1200 760" fill="none" xmlns="http://www.w3.org/2000/svg" role="img" aria-label="headroom-meter terminal dashboard preview">
  <defs>
    <linearGradient id="screen" x1="0" y1="0" x2="1200" y2="760" gradientUnits="userSpaceOnUse">
      <stop stop-color="#071013"/>
      <stop offset="1" stop-color="#0C161D"/>
    </linearGradient>
    <linearGradient id="greenBlue" x1="120" y1="240" x2="960" y2="240" gradientUnits="userSpaceOnUse">
      <stop stop-color="#00D084"/>
      <stop offset="1" stop-color="#37C4FF"/>
    </linearGradient>
    <filter id="terminalShadow" x="0" y="0" width="1200" height="760" filterUnits="userSpaceOnUse" color-interpolation-filters="sRGB">
      <feDropShadow dx="0" dy="24" stdDeviation="28" flood-color="#000000" flood-opacity="0.45"/>
    </filter>
    <style>
      .mono { font-family: ui-monospace, SFMono-Regular, Menlo, Monaco, Consolas, "Liberation Mono", monospace; }
      .title { font-size: 30px; font-weight: 800; letter-spacing: 0; }
      .line { font-size: 20px; letter-spacing: 0; }
      .small { font-size: 16px; letter-spacing: 0; }
      .prompt { font-size: 18px; letter-spacing: 0; }
    </style>
  </defs>

  <rect width="1200" height="760" rx="30" fill="#050B0E"/>
  <rect x="42" y="42" width="1116" height="676" rx="22" fill="url(#screen)" stroke="#1B3037" filter="url(#terminalShadow)"/>

  <rect x="42" y="42" width="1116" height="54" rx="22" fill="#111D23"/>
  <circle cx="76" cy="69" r="7" fill="#FF5F56"/>
  <circle cx="101" cy="69" r="7" fill="#FFBD2E"/>
  <circle cx="126" cy="69" r="7" fill="#27C93F"/>
  <text x="158" y="76" class="mono small" fill="#789096">~/headroom-meter</text>

  <text x="76" y="134" class="mono prompt" fill="#789096">$ headroom-meter</text>

  <text x="76" y="180" class="mono title" fill="#EAFBF7">HEADROOM REGEN DASHBOARD</text>
  <rect x="76" y="202" width="88" height="30" rx="15" fill="#12392C" stroke="#00D084"/>
  <text x="96" y="223" class="mono small" fill="#7CFFCB">ACTIVE</text>
  <text x="186" y="223" class="mono line" fill="#B8CBC7">Last event 4s ago</text>
  <text x="430" y="223" class="mono line" fill="#6E858A">~/.headroom/logs/proxy.log</text>

  <text x="76" y="280" class="mono line" fill="#F1FFFC">LIVE SAVINGS SPEEDOMETER</text>
  <text x="96" y="318" class="mono small" fill="#6E858A">0%</text>
  <text x="418" y="318" class="mono small" fill="#6E858A">12.5%</text>
  <text x="812" y="318" class="mono small" fill="#6E858A">25%+</text>
  <rect x="76" y="338" width="770" height="28" rx="14" fill="#16262C"/>
  <rect x="76" y="338" width="132" height="28" rx="14" fill="url(#greenBlue)"/>
  <polygon points="208,326 220,326 214,338" fill="#7CFFCB"/>
  <text x="76" y="404" class="mono line" fill="#7CFFCB">4.24% NOW</text>
  <text x="220" y="404" class="mono line" fill="#EAFBF7">2,551 saved last request</text>
  <text x="548" y="404" class="mono line" fill="#6E858A">ODOMETER</text>
  <text x="684" y="404" class="mono line" fill="#00D084">334,462 tokens</text>

  <text x="76" y="456" class="mono line" fill="#F1FFFC">RECENT REQUEST PULSES</text>
  <text x="76" y="492" class="mono line" fill="#00D084">▁▁▂▁▁▃▁▁▆▁▁▂▁▇▁▁▁▂▁▁▅▁▁▂▁▁▁▃▁▁█▁▁▂▁▁▁▁</text>
  <text x="76" y="528" class="mono small" fill="#8EA5A4">avg 2.36%   peak request 65,187 tokens saved   196 completed requests</text>

  <text x="76" y="582" class="mono line" fill="#F1FFFC">FRAME COMPRESSION</text>
  <rect x="76" y="604" width="770" height="24" rx="12" fill="#16262C"/>
  <rect x="76" y="604" width="320" height="24" rx="12" fill="#5B8CFF"/>
  <text x="870" y="624" class="mono line" fill="#A9C7FF">6.07% byte reduction</text>

  <line x1="76" y1="650" x2="1124" y2="650" stroke="#1B3037"/>
  <text x="76" y="688" class="mono line" fill="#EAFBF7">95.2%</text>
  <text x="148" y="688" class="mono small" fill="#789096">cache hit avg</text>
  <text x="330" y="688" class="mono line" fill="#EAFBF7">154,575</text>
  <text x="438" y="688" class="mono small" fill="#789096">frame tokens saved</text>
  <text x="668" y="688" class="mono line" fill="#EAFBF7">196</text>
  <text x="718" y="688" class="mono small" fill="#789096">requests</text>
  <text x="890" y="688" class="mono line" fill="#EAFBF7">0 deps</text>
</svg>
