<svg width="1200" height="760" viewBox="0 0 1200 760" fill="none" xmlns="http://www.w3.org/2000/svg" role="img" aria-label="headroom-meter terminal dashboard preview">
  <defs>
    <linearGradient id="screen" x1="0" y1="0" x2="1200" y2="760" gradientUnits="userSpaceOnUse">
      <stop stop-color="#071013"/>
      <stop offset="1" stop-color="#0C161D"/>
    </linearGradient>
    <linearGradient id="greenBlue" x1="120" y1="240" x2="960" y2="240" gradientUnits="userSpaceOnUse">
      <stop stop-color="#00D084"/>
      <stop offset="1" stop-color="#37C4FF"/>
    </linearGradient>
    <filter id="terminalShadow" x="0" y="0" width="1200" height="760" filterUnits="userSpaceOnUse" color-interpolation-filters="sRGB">
      <feDropShadow dx="0" dy="24" stdDeviation="28" flood-color="#000000" flood-opacity="0.45"/>
    </filter>
    <style>
      .mono { font-family: ui-monospace, SFMono-Regular, Menlo, Monaco, Consolas, "Liberation Mono", monospace; }
      .title { font-size: 30px; font-weight: 800; letter-spacing: 0; }
      .line { font-size: 20px; letter-spacing: 0; }
      .small { font-size: 16px; letter-spacing: 0; }
      .prompt { font-size: 18px; letter-spacing: 0; }
    </style>
  </defs>

  <rect width="1200" height="760" rx="30" fill="#050B0E"/>
  <rect x="42" y="42" width="1116" height="676" rx="22" fill="url(#screen)" stroke="#1B3037" filter="url(#terminalShadow)"/>

  <rect x="42" y="42" width="1116" height="54" rx="22" fill="#111D23"/>
  <circle cx="76" cy="69" r="7" fill="#FF5F56"/>
  <circle cx="101" cy="69" r="7" fill="#FFBD2E"/>
  <circle cx="126" cy="69" r="7" fill="#27C93F"/>
  <text x="158" y="76" class="mono small" fill="#789096">~/headroom-meter</text>

  <text x="76" y="134" class="mono prompt" fill="#789096">$ headroom-meter</text>

  <text x="76" y="180" class="mono title" fill="#EAFBF7">HEADROOM REGEN DASHBOARD</text>
  <rect x="76" y="202" width="88" height="30" rx="15" fill="#12392C" stroke="#00D084"/>
  <text x="96" y="223" class="mono small" fill="#7CFFCB">ACTIVE</text>
  <text x="186" y="223" class="mono line" fill="#B8CBC7">Last event 4s ago</text>
  <text x="430" y="223" class="mono line" fill="#6E858A">~/.headroom/logs/proxy.log</text>

  <text x="76" y="280" class="mono line" fill="#F1FFFC">TOKEN REGEN</text>
  <rect x="76" y="302" width="770" height="24" rx="12" fill="#16262C"/>
  <rect x="76" y="302" width="235" height="24" rx="12" fill="url(#greenBlue)"/>
  <text x="870" y="322" class="mono line" fill="#7CFFCB">2.36% captured</text>
  <text x="76" y="360" class="mono line" fill="#8EA5A4">RAW</text>
  <text x="135" y="360" class="mono line" fill="#37C4FF">&gt;&gt;</text>
  <text x="184" y="360" class="mono line" fill="#EAFBF7">REGEN</text>
  <text x="282" y="360" class="mono line" fill="#00D084">1,706 avg tokens/request</text>
  <text x="585" y="360" class="mono line" fill="#37C4FF">&gt;&gt;</text>
  <text x="634" y="360" class="mono line" fill="#8EA5A4">MODEL</text>

  <text x="76" y="420" class="mono line" fill="#F1FFFC">RECENT REQUEST PULSES</text>
  <text x="76" y="456" class="mono line" fill="#00D084">▁▁▂▁▁▃▁▁▆▁▁▂▁▇▁▁▁▂▁▁▅▁▁▂▁▁▁▃▁▁█▁▁▂▁▁▁▁</text>
  <text x="76" y="492" class="mono small" fill="#8EA5A4">avg 2.36%   peak request 65,187 tokens saved   196 completed requests</text>

  <text x="76" y="552" class="mono line" fill="#F1FFFC">FRAME COMPRESSION</text>
  <rect x="76" y="574" width="770" height="24" rx="12" fill="#16262C"/>
  <rect x="76" y="574" width="320" height="24" rx="12" fill="#5B8CFF"/>
  <text x="870" y="594" class="mono line" fill="#A9C7FF">6.07% byte reduction</text>

  <line x1="76" y1="632" x2="1124" y2="632" stroke="#1B3037"/>
  <text x="76" y="670" class="mono line" fill="#EAFBF7">334,462</text>
  <text x="178" y="670" class="mono small" fill="#789096">tokens saved</text>
  <text x="360" y="670" class="mono line" fill="#EAFBF7">95.2%</text>
  <text x="430" y="670" class="mono small" fill="#789096">cache hit avg</text>
  <text x="610" y="670" class="mono line" fill="#EAFBF7">154,575</text>
  <text x="718" y="670" class="mono small" fill="#789096">frame tokens saved</text>
  <text x="948" y="670" class="mono line" fill="#EAFBF7">0 deps</text>
</svg>
